<svg width="220" height="220" viewBox="0 0 220 220" version="1.1" xmlns="http://www.w3.org/2000/svg" xmlns:xlink="http://www.w3.org/1999/xlink">
<title>Group</title>
<desc>Created using Figma</desc>
<g id="Canvas" transform="translate(736 564)">
<g id="Group">
<g id="Group">
<g id="Rectangle">
<use xlink:href="#path0_fill" transform="translate(-726 -554)" fill="#FFFFFF"/>
<mask id="mask0_outline_out">
<rect id="mask0_outline_inv" fill="white" x="-10" y="-10" width="120" height="120" transform="translate(-726 -554)"/>
<use xlink:href="#path0_fill" fill="black" transform="translate(-726 -554)"/>
</mask>
<g mask="url(#mask0_outline_out)">
<use xlink:href="#path1_stroke_2x" transform="translate(-726 -554)" fill="#FFFFFF"/>
</g>
</g>
<g id="Rectangle">
<use xlink:href="#path0_fill" transform="translate(-626 -554)" fill="#222222"/>
<mask id="mask1_outline_out">
<rect id="mask1_outline_inv" fill="white" x="-10" y="-10" width="120" height="120" transform="translate(-626 -554)"/>
<use xlink:href="#path0_fill" fill="black" transform="translate(-626 -554)"/>
</mask>
<g mask="url(#mask1_outline_out)">
<use xlink:href="#path1_stroke_2x" transform="translate(-626 -554)" fill="#FFFFFF"/>
</g>
</g>
<g id="Rectangle">
<use xlink:href="#path0_fill" transform="translate(-726 -454)" fill="#222222"/>
<mask id="mask2_outline_out">
<rect id="mask2_outline_inv" fill="white" x="-10" y="-10" width="120" height="120" transform="translate(-726 -454)"/>
<use xlink:href="#path0_fill" fill="black" transform="translate(-726 -454)"/>
</mask>
<g mask="url(#mask2_outline_out)">
<use xlink:href="#path1_stroke_2x" transform="translate(-726 -454)" fill="#FFFFFF"/>
</g>
</g>
<g id="Rectangle">
<use xlink:href="#path0_fill" transform="translate(-626 -454)" fill="#222222"/>
<mask id="mask3_outline_out">
<rect id="mask3_outline_inv" fill="white" x="-10" y="-10" width="120" height="120" transform="translate(-626 -454)"/>
<use xlink:href="#path0_fill" fill="black" transform="translate(-626 -454)"/>
</mask>
<g mask="url(#mask3_outline_out)">
<use xlink:href="#path1_stroke_2x" transform="translate(-626 -454)" fill="#FFFFFF"/>
</g>
</g>
</g>
</g>
</g>
<defs>
<path id="path0_fill" d="M 0 0L 100 0L 100 100L 0 100L 0 0Z"/>
<path id="path1_stroke_2x" d="M 0 0L 0 -10L -10 -10L -10 0L 0 0ZM 100 0L 110 0L 110 -10L 100 -10L 100 0ZM 100 100L 100 110L 110 110L 110 100L 100 100ZM 0 100L -10 100L -10 110L 0 110L 0 100ZM 0 10L 100 10L 100 -10L 0 -10L 0 10ZM 90 0L 90 100L 110 100L 110 0L 90 0ZM 100 90L 0 90L 0 110L 100 110L 100 90ZM 10 100L 10 0L -10 0L -10 100L 10 100Z"/>
</defs>
</svg>
